<svg width="123" height="41" viewBox="0 0 123 41" fill="none" xmlns="http://www.w3.org/2000/svg">
<path d="M112.576 0.00013325H9.746C9.37118 0.00013325 9.00085 0.00013325 8.62701 0.00218324C8.31407 0.00423324 8.00363 0.0101885 7.68769 0.0152007C7.00132 0.0233 6.31657 0.0838511 5.63938 0.196328C4.96314 0.311253 4.30808 0.52792 3.69637 0.839001C3.0854 1.15271 2.52714 1.56035 2.04184 2.04712C1.554 2.53253 1.14734 3.09359 0.83751 3.70873C0.526823 4.32266 0.311392 4.98053 0.198658 5.65963C0.0848508 6.33788 0.0236103 7.02394 0.0154858 7.71168C0.0060001 8.02594 0.00499838 8.34125 0 8.65555V32.3476C0.00499838 32.6659 0.0060001 32.9742 0.0154858 33.2925C0.0236128 33.9802 0.0848533 34.6663 0.198658 35.3445C0.311081 36.024 0.526525 36.6822 0.83751 37.2964C1.1472 37.9095 1.55391 38.4683 2.04184 38.951C2.5253 39.44 3.08392 39.8479 3.69637 40.1592C4.30808 40.4711 4.96306 40.6891 5.63938 40.8058C6.31668 40.9173 7.00137 40.9779 7.68769 40.987C8.00363 40.994 8.31407 40.998 8.62701 40.998C9.00084 41 9.3712 41 9.746 41H112.576C112.943 41 113.316 41 113.684 40.998C113.995 40.998 114.315 40.994 114.626 40.987C115.311 40.9784 115.995 40.9178 116.67 40.8058C117.349 40.6882 118.006 40.4703 118.621 40.1592C119.233 39.8477 119.791 39.4398 120.274 38.951C120.761 38.4664 121.168 37.9081 121.482 37.2964C121.79 36.6818 122.004 36.0236 122.115 35.3445C122.229 34.6662 122.292 33.9803 122.304 33.2925C122.308 32.9742 122.308 32.6659 122.308 32.3476C122.316 31.9752 122.316 31.6049 122.316 31.2264V9.77463C122.316 9.39927 122.316 9.02691 122.308 8.65555C122.308 8.34125 122.308 8.02594 122.304 7.71163C122.292 7.02384 122.229 6.33793 122.115 5.65959C122.003 4.98088 121.79 4.32306 121.482 3.70869C120.851 2.4757 119.85 1.47205 118.621 0.838908C118.006 0.528588 117.349 0.311979 116.67 0.196236C115.995 0.0832633 115.311 0.0226911 114.626 0.0150572C114.315 0.0100552 113.995 0.00404874 113.684 0.00204999C113.316 0 112.943 0 112.576 0V0.00013325Z" fill="#0051BA"/>
<path d="M8.63222 40.1031C8.32078 40.1031 8.01687 40.0991 7.70788 40.0921C7.06779 40.0838 6.42919 40.0279 5.79732 39.9249C5.20813 39.8232 4.63737 39.6339 4.10386 39.3634C3.57524 39.095 3.09309 38.7432 2.6759 38.3213C2.25266 37.9044 1.9003 37.4209 1.63277 36.8899C1.36229 36.3555 1.17511 35.7826 1.07773 35.1913C0.972577 34.5559 0.915684 33.9135 0.907543 33.2694C0.901062 33.0533 0.892578 32.3335 0.892578 32.3335V8.65552C0.892578 8.65552 0.901614 7.94683 0.907594 7.73862C0.915389 7.09562 0.971951 6.45415 1.07679 5.81976C1.17435 5.22681 1.36168 4.6523 1.6323 4.11611C1.89884 3.58548 2.24925 3.1016 2.66994 2.68321C3.09015 2.26086 3.57384 1.90721 4.10336 1.63519C4.63564 1.36549 5.20533 1.17755 5.79332 1.07765C6.42726 0.973679 7.06808 0.917469 7.7104 0.909488L8.63272 0.896973H113.679L114.612 0.90999C115.249 0.917574 115.884 0.973284 116.512 1.07664C117.106 1.1778 117.681 1.36705 118.22 1.63819C119.281 2.1864 120.144 3.05373 120.688 4.11861C120.955 4.6511 121.139 5.22093 121.235 5.80875C121.342 6.44835 121.401 7.09486 121.413 7.74313C121.416 8.03341 121.416 8.34521 121.416 8.65552C121.424 9.03989 121.424 9.40575 121.424 9.7746V31.2264C121.424 31.5988 121.424 31.9622 121.416 32.3285C121.416 32.6618 121.416 32.9672 121.412 33.2814C121.4 33.9181 121.342 34.5531 121.237 35.1813C121.142 35.7769 120.956 36.3542 120.685 36.893C120.416 37.4182 120.066 37.8976 119.647 38.3133C119.23 38.7375 118.747 39.0914 118.217 39.3614C117.68 39.6341 117.105 39.824 116.512 39.9249C115.88 40.0284 115.241 40.0843 114.601 40.0921C114.302 40.0991 113.988 40.1031 113.684 40.1031L112.576 40.1051L8.63222 40.1031Z" fill="white"/>
<path d="M25.551 20.3855C25.5624 19.4958 25.7981 18.6235 26.236 17.8497C26.674 17.0759 27.3 16.4258 28.0559 15.9598C27.5757 15.2722 26.9422 14.7062 26.2058 14.307C25.4694 13.9078 24.6502 13.6862 23.8135 13.66C22.0285 13.4721 20.2981 14.731 19.3885 14.731C18.4614 14.731 17.0609 13.6786 15.5529 13.7097C14.5775 13.7414 13.6268 14.0258 12.7936 14.5353C11.9604 15.0449 11.273 15.7622 10.7984 16.6174C8.74276 20.1864 10.2761 25.4317 12.2453 28.3167C13.2306 29.7293 14.382 31.3073 15.8887 31.2514C17.3631 31.1901 17.9137 30.3086 19.6934 30.3086C21.4566 30.3086 21.9732 31.2514 23.5104 31.2158C25.0925 31.1901 26.0893 29.7969 27.04 28.3708C27.7479 27.3642 28.2926 26.2517 28.654 25.0745C27.7348 24.6847 26.9504 24.0322 26.3986 23.1983C25.8468 22.3645 25.552 21.3862 25.551 20.3855Z" fill="#0051BA"/>
<path d="M22.6482 11.7629C23.5108 10.7245 23.9358 9.38977 23.8328 8.04224C22.515 8.18104 21.2976 8.81264 20.4234 9.8112C19.9959 10.299 19.6685 10.8665 19.4599 11.4813C19.2513 12.0961 19.1656 12.7461 19.2077 13.3941C19.8668 13.4009 20.519 13.2576 21.1149 12.9751C21.7109 12.6925 22.2351 12.278 22.6482 11.7629Z" fill="#0051BA"/>
<path d="M43.239 27.8178H38.4007L37.2388 31.2582H35.1895L39.7722 18.5298H41.9014L46.4842 31.2582H44.3999L43.239 27.8178ZM38.9018 26.2303H42.7369L40.8463 20.6469H40.7934L38.9018 26.2303Z" fill="#0051BA"/>
<path d="M56.3814 26.616C56.3814 29.4998 54.8422 31.3526 52.5194 31.3526C51.931 31.3835 51.3458 31.2476 50.8308 30.9604C50.3158 30.6733 49.8919 30.2465 49.6076 29.729H49.5636V34.3255H47.6641V21.9755H49.5028V23.519H49.5377C49.8351 23.004 50.2662 22.5794 50.7851 22.2906C51.3039 22.0017 51.8912 21.8592 52.4844 21.8784C54.8332 21.8784 56.3814 23.7402 56.3814 26.616ZM54.4289 26.616C54.4289 24.7372 53.4607 23.502 51.9833 23.502C50.5319 23.502 49.5557 24.7632 49.5557 26.616C49.5557 28.4859 50.5319 29.7381 51.9833 29.7381C53.4607 29.7381 54.4289 28.5119 54.4289 26.616H54.4289Z" fill="#0051BA"/>
<path d="M66.5675 26.616C66.5675 29.4998 65.0277 31.3526 62.7049 31.3526C62.1165 31.3835 61.5313 31.2476 61.0164 30.9604C60.5014 30.6733 60.0775 30.2465 59.7931 29.729H59.7492V34.3255H57.8496V21.9755H59.6883V23.519H59.7232C60.0206 23.004 60.4517 22.5794 60.9706 22.2906C61.4895 22.0017 62.0768 21.8592 62.6699 21.8784C65.0188 21.8784 66.5675 23.7402 66.5675 26.616ZM64.6145 26.616C64.6145 24.7372 63.6462 23.502 62.1689 23.502C60.7175 23.502 59.7412 24.7632 59.7412 26.616C59.7412 28.4859 60.7175 29.7381 62.1689 29.7381C63.6462 29.7381 64.6145 28.5119 64.6145 26.616Z" fill="#0051BA"/>
<path d="M73.2981 27.7101C73.4388 28.9723 74.6616 29.8011 76.3326 29.8011C77.9337 29.8011 79.0857 28.9723 79.0857 27.8342C79.0857 26.8462 78.3909 26.2547 76.7459 25.8493L75.1008 25.4519C72.77 24.8873 71.688 23.7942 71.688 22.0205C71.688 19.8244 73.5965 18.3159 76.3057 18.3159C78.9889 18.3159 80.8276 19.8244 80.8894 22.0205H78.9719C78.8571 20.7503 77.81 19.9835 76.2797 19.9835C74.7495 19.9835 73.7023 20.7593 73.7023 21.8884C73.7023 22.7883 74.3711 23.3178 76.0072 23.7231L77.4057 24.0675C80.01 24.6851 81.0911 25.7341 81.0911 27.5959C81.0911 29.9772 79.2004 31.4687 76.1918 31.4687C73.3769 31.4687 71.4763 30.0123 71.3535 27.71L73.2981 27.7101Z" fill="#0051BA"/>
<path d="M85.1936 19.7805V21.9767H86.9534V23.4851H85.1936V28.6011C85.1936 29.3959 85.546 29.7662 86.3196 29.7662C86.5285 29.7626 86.7371 29.7479 86.9445 29.7222V31.2216C86.5966 31.2868 86.2431 31.3163 85.8893 31.3097C84.0157 31.3097 83.285 30.604 83.285 28.8043V23.4851H81.9395V21.9767H83.285V19.7805H85.1936Z" fill="#0051BA"/>
<path d="M87.9707 26.6169C87.9707 23.6971 89.6856 21.8623 92.3598 21.8623C95.043 21.8623 96.7499 23.697 96.7499 26.6169C96.7499 29.5448 95.052 31.3715 92.3598 31.3715C89.6686 31.3715 87.9707 29.5448 87.9707 26.6169ZM94.8144 26.6169C94.8144 24.614 93.8991 23.4318 92.3598 23.4318C90.8206 23.4318 89.9052 24.623 89.9052 26.6169C89.9052 28.6279 90.8206 29.801 92.3598 29.801C93.8991 29.801 94.8144 28.6279 94.8144 26.6169H94.8144Z" fill="#0051BA"/>
<path d="M98.3164 21.9754H100.128V23.5549H100.172C100.295 23.0616 100.583 22.6257 100.988 22.3203C101.394 22.015 101.891 21.8589 102.398 21.8783C102.617 21.8776 102.835 21.9014 103.049 21.9494V23.7311C102.773 23.6464 102.484 23.6076 102.195 23.616C101.919 23.6048 101.644 23.6536 101.389 23.759C101.134 23.8645 100.904 24.0241 100.716 24.227C100.528 24.4298 100.386 24.671 100.3 24.9341C100.213 25.1972 100.185 25.4759 100.216 25.7511V31.2554H98.3164L98.3164 21.9754Z" fill="#0051BA"/>
<path d="M111.807 28.5308C111.552 30.2154 109.915 31.3715 107.822 31.3715C105.13 31.3715 103.459 29.5628 103.459 26.661C103.459 23.7501 105.139 21.8623 107.742 21.8623C110.303 21.8623 111.913 23.626 111.913 26.4398V27.0924H105.377V27.2075C105.346 27.549 105.389 27.8931 105.502 28.2168C105.614 28.5406 105.794 28.8366 106.03 29.0852C106.265 29.3338 106.551 29.5293 106.867 29.6588C107.184 29.7882 107.525 29.8487 107.866 29.836C108.315 29.8782 108.766 29.774 109.151 29.5388C109.536 29.3036 109.835 28.9501 110.003 28.5308L111.807 28.5308ZM105.386 25.7611H110.012C110.029 25.454 109.983 25.1467 109.876 24.8585C109.769 24.5702 109.604 24.3073 109.391 24.0861C109.177 23.865 108.921 23.6904 108.637 23.5733C108.354 23.4562 108.049 23.3992 107.742 23.4058C107.433 23.404 107.126 23.4636 106.84 23.5812C106.554 23.6988 106.294 23.8721 106.075 24.091C105.856 24.31 105.682 24.5703 105.564 24.857C105.445 25.1436 105.385 25.4509 105.386 25.7611V25.7611Z" fill="#0051BA"/>
<path d="M41.7773 14.3945H41.0312V13H36.9492V14.3984H36.1992L36.1953 12.3867H36.6602C36.9049 12.1107 37.099 11.7409 37.2422 11.2773C37.388 10.8112 37.4792 10.3008 37.5156 9.74609L37.6406 7.3125H41.043V12.3867H41.7852L41.7773 14.3945ZM37.5156 12.3867H40.2891V7.92969H38.3633L38.2812 9.60156C38.2474 10.2552 38.1602 10.8125 38.0195 11.2734C37.8815 11.7344 37.7135 12.1055 37.5156 12.3867ZM46.957 10.3398C46.957 10.8971 46.8633 11.3841 46.6758 11.8008C46.4883 12.2148 46.2227 12.5312 45.8789 12.75C45.5352 12.9688 45.1341 13.0781 44.6758 13.0781C44.2279 13.0781 43.8307 12.9688 43.4844 12.75C43.138 12.5286 42.8685 12.2148 42.6758 11.8086C42.4857 11.3997 42.388 10.9271 42.3828 10.3906V9.98047C42.3828 9.43359 42.4779 8.95052 42.668 8.53125C42.8581 8.11198 43.1263 7.79167 43.4727 7.57031C43.8216 7.34635 44.2201 7.23438 44.668 7.23438C45.1237 7.23438 45.5247 7.34505 45.8711 7.56641C46.2201 7.78516 46.4883 8.10417 46.6758 8.52344C46.8633 8.9401 46.957 9.42578 46.957 9.98047V10.3398ZM46.2109 9.97266C46.2109 9.29818 46.0755 8.78125 45.8047 8.42188C45.5339 8.0599 45.1549 7.87891 44.668 7.87891C44.194 7.87891 43.8203 8.0599 43.5469 8.42188C43.276 8.78125 43.1367 9.28125 43.1289 9.92188V10.3398C43.1289 10.9935 43.2656 11.5078 43.5391 11.8828C43.8151 12.2552 44.194 12.4414 44.6758 12.4414C45.1602 12.4414 45.5352 12.2656 45.8008 11.9141C46.0664 11.5599 46.2031 11.0534 46.2109 10.3945V9.97266ZM52.2656 11.1953C52.1953 11.7969 51.9727 12.2617 51.5977 12.5898C51.2253 12.9154 50.7292 13.0781 50.1094 13.0781C49.4375 13.0781 48.8984 12.8372 48.4922 12.3555C48.0885 11.8737 47.8867 11.2292 47.8867 10.4219V9.875C47.8867 9.34635 47.9805 8.88151 48.168 8.48047C48.3581 8.07943 48.6263 7.77214 48.9727 7.55859C49.319 7.34245 49.7201 7.23438 50.1758 7.23438C50.7799 7.23438 51.2643 7.40365 51.6289 7.74219C51.9935 8.07812 52.2057 8.54427 52.2656 9.14062H51.5117C51.4466 8.6875 51.3047 8.35938 51.0859 8.15625C50.8698 7.95312 50.5664 7.85156 50.1758 7.85156C49.6966 7.85156 49.3203 8.02865 49.0469 8.38281C48.776 8.73698 48.6406 9.24089 48.6406 9.89453V10.4453C48.6406 11.0625 48.7695 11.5534 49.0273 11.918C49.2852 12.2826 49.6458 12.4648 50.1094 12.4648C50.526 12.4648 50.8451 12.3711 51.0664 12.1836C51.2904 11.9935 51.4388 11.6641 51.5117 11.1953H52.2656ZM57.1055 7.92969H55.2773V13H54.5312V7.92969H52.707V7.3125H57.1055V7.92969ZM59.9023 10.6133L61.2109 7.3125H62.082L60.0703 12.0508C59.9349 12.3529 59.8086 12.5677 59.6914 12.6953C59.5742 12.8203 59.4362 12.9167 59.2773 12.9844C59.1211 13.0495 58.9245 13.082 58.6875 13.082C58.4818 13.082 58.3503 13.0703 58.293 13.0469L58.3164 12.4531L58.6719 12.4688C58.9453 12.4688 59.1484 12.3372 59.2812 12.0742L59.3789 11.8711L59.5273 11.5234L57.5898 7.3125H58.4297L59.9023 10.6133ZM67.3242 13H66.5703V7.92969H63.7656V13H63.0156V7.3125H67.3242V13ZM73.0625 13H72.3086V10.3711H69.4414V13H68.6914V7.3125H69.4414V9.75781H72.3086V7.3125H73.0625V13ZM78.7695 10.3398C78.7695 10.8971 78.6758 11.3841 78.4883 11.8008C78.3008 12.2148 78.0352 12.5312 77.6914 12.75C77.3477 12.9688 76.9466 13.0781 76.4883 13.0781C76.0404 13.0781 75.6432 12.9688 75.2969 12.75C74.9505 12.5286 74.681 12.2148 74.4883 11.8086C74.2982 11.3997 74.2005 10.9271 74.1953 10.3906V9.98047C74.1953 9.43359 74.2904 8.95052 74.4805 8.53125C74.6706 8.11198 74.9388 7.79167 75.2852 7.57031C75.6341 7.34635 76.0326 7.23438 76.4805 7.23438C76.9362 7.23438 77.3372 7.34505 77.6836 7.56641C78.0326 7.78516 78.3008 8.10417 78.4883 8.52344C78.6758 8.9401 78.7695 9.42578 78.7695 9.98047V10.3398ZM78.0234 9.97266C78.0234 9.29818 77.888 8.78125 77.6172 8.42188C77.3464 8.0599 76.9674 7.87891 76.4805 7.87891C76.0065 7.87891 75.6328 8.0599 75.3594 8.42188C75.0885 8.78125 74.9492 9.28125 74.9414 9.92188V10.3398C74.9414 10.9935 75.0781 11.5078 75.3516 11.8828C75.6276 12.2552 76.0065 12.4414 76.4883 12.4414C76.9727 12.4414 77.3477 12.2656 77.6133 11.9141C77.8789 11.5599 78.0156 11.0534 78.0234 10.3945V9.97266ZM81.8789 13V7.3125H83.7383C84.3555 7.3125 84.819 7.4401 85.1289 7.69531C85.4414 7.95052 85.5977 8.32812 85.5977 8.82812C85.5977 9.09375 85.5221 9.32943 85.3711 9.53516C85.2201 9.73828 85.0143 9.89583 84.7539 10.0078C85.0612 10.0938 85.3034 10.2578 85.4805 10.5C85.6602 10.7396 85.75 11.026 85.75 11.3594C85.75 11.8698 85.5846 12.2708 85.2539 12.5625C84.9232 12.8542 84.4557 13 83.8516 13H81.8789ZM82.6289 10.3398V12.3867H83.8672C84.2161 12.3867 84.4909 12.2969 84.6914 12.1172C84.8945 11.9349 84.9961 11.6849 84.9961 11.3672C84.9961 10.6823 84.6237 10.3398 83.8789 10.3398H82.6289ZM82.6289 9.73828H83.7617C84.0898 9.73828 84.3516 9.65625 84.5469 9.49219C84.7448 9.32812 84.8438 9.10547 84.8438 8.82422C84.8438 8.51172 84.7526 8.28516 84.5703 8.14453C84.388 8.0013 84.1107 7.92969 83.7383 7.92969H82.6289V9.73828Z" fill="#0051BA"/>
</svg>
