<svg width="24" height="24" viewBox="0 0 24 24" fill="none" xmlns="http://www.w3.org/2000/svg">
<path fill-rule="evenodd" clip-rule="evenodd" d="M12 3.94446C10.2761 3.94446 8.62279 4.62928 7.40381 5.84826C6.18482 7.06725 5.5 8.72055 5.5 10.4445C5.5 12.9657 7.13287 15.3716 8.86298 17.1978C9.71781 18.1001 10.5743 18.8379 11.2177 19.3502C11.539 19.606 11.8061 19.8049 11.992 19.9391C11.9947 19.941 11.9973 19.943 12 19.9449C12.0027 19.943 12.0053 19.941 12.008 19.9391C12.1939 19.8049 12.461 19.606 12.7823 19.3502C13.4257 18.8379 14.2822 18.1001 15.137 17.1978C16.8671 15.3716 18.5 12.9657 18.5 10.4445C18.5 8.72055 17.8152 7.06725 16.5962 5.84826C15.3772 4.62928 13.7239 3.94446 12 3.94446ZM12 20.5556C11.7227 20.9716 11.7225 20.9715 11.7224 20.9714L11.7219 20.9711L11.7205 20.9702L11.7158 20.967L11.699 20.9556C11.6845 20.9458 11.6636 20.9315 11.6367 20.9129C11.5829 20.8756 11.505 20.8209 11.4065 20.7498C11.2095 20.6075 10.9297 20.3992 10.5948 20.1325C9.92567 19.5997 9.03219 18.8305 8.13702 17.8856C6.36713 16.0173 4.5 13.3677 4.5 10.4445C4.5 8.45533 5.29018 6.54768 6.6967 5.14116C8.10322 3.73463 10.0109 2.94446 12 2.94446C13.9891 2.94446 15.8968 3.73463 17.3033 5.14116C18.7098 6.54768 19.5 8.45533 19.5 10.4445C19.5 13.3677 17.6329 16.0173 15.863 17.8856C14.9678 18.8305 14.0743 19.5997 13.4052 20.1325C13.0703 20.3992 12.7905 20.6075 12.5935 20.7498C12.495 20.8209 12.4171 20.8756 12.3633 20.9129C12.3364 20.9315 12.3155 20.9458 12.301 20.9556L12.2842 20.967L12.2795 20.9702L12.2781 20.9711L12.2776 20.9714C12.2775 20.9715 12.2773 20.9716 12 20.5556ZM12 20.5556L12.2773 20.9716C12.1094 21.0836 11.8906 21.0836 11.7227 20.9716L12 20.5556ZM9.16681 10.4444C9.16681 8.8796 10.4353 7.61107 12.0001 7.61107C13.5649 7.61107 14.8335 8.8796 14.8335 10.4444C14.8335 12.0092 13.5649 13.2777 12.0001 13.2777C10.4353 13.2777 9.16681 12.0092 9.16681 10.4444ZM12.0001 8.61107C10.9876 8.61107 10.1668 9.43188 10.1668 10.4444C10.1668 11.4569 10.9876 12.2777 12.0001 12.2777C13.0127 12.2777 13.8335 11.4569 13.8335 10.4444C13.8335 9.43188 13.0127 8.61107 12.0001 8.61107Z" fill="#9AA6B6"/>
</svg>
