<svg width="122" height="41" viewBox="0 0 122 41" fill="none" xmlns="http://www.w3.org/2000/svg">
<path d="M111.807 0.00013234H9.67949C9.30722 0.00013234 8.93942 0.00013234 8.56813 0.00216834C8.25733 0.00420435 7.94901 0.0101189 7.63523 0.015097C6.95354 0.023141 6.27346 0.0832789 5.60089 0.194988C4.92927 0.309129 4.27868 0.524317 3.67114 0.833275C3.06434 1.14485 2.50989 1.5497 2.02791 2.03315C1.54339 2.51524 1.13951 3.07248 0.831794 3.68342C0.523228 4.29315 0.309267 4.94654 0.197302 5.62101C0.0842717 6.29462 0.0234492 6.97601 0.0153801 7.65905C0.00595915 7.97116 0.00496427 8.28432 0 8.59648V32.1268C0.00496427 32.4429 0.00595915 32.7491 0.0153801 33.0653C0.0234517 33.7483 0.0842742 34.4297 0.197302 35.1033C0.308958 35.7781 0.522931 36.4319 0.831794 37.0418C1.13937 37.6508 1.54331 38.2058 2.02791 38.6852C2.50807 39.1708 3.06287 39.5759 3.67114 39.8851C4.27868 40.1949 4.92919 40.4114 5.60089 40.5273C6.27357 40.6381 6.95359 40.6982 7.63523 40.7073C7.94901 40.7142 8.25733 40.7182 8.56813 40.7182C8.93941 40.7202 9.30724 40.7202 9.67949 40.7202H111.807C112.172 40.7202 112.543 40.7202 112.908 40.7182C113.217 40.7182 113.534 40.7142 113.844 40.7073C114.524 40.6987 115.203 40.6386 115.874 40.5273C116.548 40.4106 117.201 40.1941 117.811 39.8851C118.419 39.5758 118.973 39.1706 119.453 38.6852C119.936 38.2039 120.341 37.6493 120.653 37.0418C120.959 36.4314 121.171 35.7777 121.281 35.1033C121.394 34.4296 121.457 33.7484 121.47 33.0653C121.474 32.7491 121.474 32.4429 121.474 32.1268C121.481 31.757 121.481 31.3892 121.481 31.0133V9.70792C121.481 9.33512 121.481 8.9653 121.474 8.59648C121.474 8.28432 121.474 7.97116 121.47 7.659C121.457 6.97591 121.394 6.29467 121.281 5.62097C121.171 4.94689 120.959 4.29356 120.653 3.68338C120.026 2.45881 119.032 1.46201 117.811 0.833183C117.201 0.524981 116.548 0.309849 115.874 0.194896C115.203 0.0826951 114.524 0.0225363 113.844 0.0149544C113.534 0.00998659 113.217 0.00402111 112.908 0.002036C112.543 0 112.172 0 111.807 0V0.00013234Z" fill="#0051BA"/>
<path d="M8.57366 39.8297C8.26435 39.8297 7.96252 39.8257 7.65563 39.8188C7.01991 39.8105 6.38566 39.755 5.75811 39.6527C5.17294 39.5517 4.60608 39.3637 4.07621 39.095C3.55119 38.8285 3.07234 38.479 2.65799 38.0601C2.23764 37.646 1.88768 37.1658 1.62198 36.6384C1.35335 36.1076 1.16744 35.5387 1.07073 34.9514C0.966294 34.3204 0.909789 33.6823 0.901703 33.0426C0.895267 32.8279 0.886841 32.1131 0.886841 32.1131V8.59671C0.886841 8.59671 0.895815 7.89285 0.901754 7.68607C0.909496 7.04746 0.965672 6.41036 1.0698 5.7803C1.16669 5.1914 1.35274 4.62081 1.62151 4.08828C1.88624 3.56127 2.23425 3.08069 2.65207 2.66516C3.06942 2.24569 3.5498 1.89446 4.07571 1.62429C4.60436 1.35644 5.17016 1.16977 5.75414 1.07056C6.38375 0.967297 7.0202 0.911469 7.65813 0.903543L8.57416 0.891113H112.904L113.83 0.904042C114.463 0.911574 115.093 0.966903 115.717 1.06956C116.307 1.17002 116.879 1.35798 117.413 1.62727C118.467 2.17174 119.324 3.03315 119.865 4.09076C120.13 4.61962 120.313 5.18556 120.408 5.76936C120.514 6.4046 120.573 7.0467 120.585 7.69055C120.588 7.97885 120.588 8.28852 120.588 8.59671C120.596 8.97846 120.596 9.34182 120.596 9.70815V31.0136C120.596 31.3834 120.596 31.7443 120.588 32.1081C120.588 32.4392 120.588 32.7424 120.584 33.0546C120.572 33.6869 120.514 34.3176 120.41 34.9414C120.316 35.5329 120.131 36.1063 119.862 36.6415C119.595 37.1631 119.247 37.6392 118.831 38.0521C118.416 38.4734 117.937 38.8248 117.41 39.093C116.877 39.3638 116.306 39.5525 115.717 39.6527C115.09 39.7555 114.455 39.811 113.82 39.8188C113.522 39.8257 113.211 39.8297 112.908 39.8297L111.808 39.8317L8.57366 39.8297Z" fill="white"/>
<path d="M45.7773 14.3945H45.0312V13H40.9492V14.3984H40.1992L40.1953 12.3867H40.6602C40.9049 12.1107 41.099 11.7409 41.2422 11.2773C41.388 10.8112 41.4792 10.3008 41.5156 9.74609L41.6406 7.3125H45.043V12.3867H45.7852L45.7773 14.3945ZM41.5156 12.3867H44.2891V7.92969H42.3633L42.2812 9.60156C42.2474 10.2552 42.1602 10.8125 42.0195 11.2734C41.8815 11.7344 41.7135 12.1055 41.5156 12.3867ZM50.957 10.3398C50.957 10.8971 50.8633 11.3841 50.6758 11.8008C50.4883 12.2148 50.2227 12.5312 49.8789 12.75C49.5352 12.9688 49.1341 13.0781 48.6758 13.0781C48.2279 13.0781 47.8307 12.9688 47.4844 12.75C47.138 12.5286 46.8685 12.2148 46.6758 11.8086C46.4857 11.3997 46.388 10.9271 46.3828 10.3906V9.98047C46.3828 9.43359 46.4779 8.95052 46.668 8.53125C46.8581 8.11198 47.1263 7.79167 47.4727 7.57031C47.8216 7.34635 48.2201 7.23438 48.668 7.23438C49.1237 7.23438 49.5247 7.34505 49.8711 7.56641C50.2201 7.78516 50.4883 8.10417 50.6758 8.52344C50.8633 8.9401 50.957 9.42578 50.957 9.98047V10.3398ZM50.2109 9.97266C50.2109 9.29818 50.0755 8.78125 49.8047 8.42188C49.5339 8.0599 49.1549 7.87891 48.668 7.87891C48.194 7.87891 47.8203 8.0599 47.5469 8.42188C47.276 8.78125 47.1367 9.28125 47.1289 9.92188V10.3398C47.1289 10.9935 47.2656 11.5078 47.5391 11.8828C47.8151 12.2552 48.194 12.4414 48.6758 12.4414C49.1602 12.4414 49.5352 12.2656 49.8008 11.9141C50.0664 11.5599 50.2031 11.0534 50.2109 10.3945V9.97266ZM56.2656 11.1953C56.1953 11.7969 55.9727 12.2617 55.5977 12.5898C55.2253 12.9154 54.7292 13.0781 54.1094 13.0781C53.4375 13.0781 52.8984 12.8372 52.4922 12.3555C52.0885 11.8737 51.8867 11.2292 51.8867 10.4219V9.875C51.8867 9.34635 51.9805 8.88151 52.168 8.48047C52.3581 8.07943 52.6263 7.77214 52.9727 7.55859C53.319 7.34245 53.7201 7.23438 54.1758 7.23438C54.7799 7.23438 55.2643 7.40365 55.6289 7.74219C55.9935 8.07812 56.2057 8.54427 56.2656 9.14062H55.5117C55.4466 8.6875 55.3047 8.35938 55.0859 8.15625C54.8698 7.95312 54.5664 7.85156 54.1758 7.85156C53.6966 7.85156 53.3203 8.02865 53.0469 8.38281C52.776 8.73698 52.6406 9.24089 52.6406 9.89453V10.4453C52.6406 11.0625 52.7695 11.5534 53.0273 11.918C53.2852 12.2826 53.6458 12.4648 54.1094 12.4648C54.526 12.4648 54.8451 12.3711 55.0664 12.1836C55.2904 11.9935 55.4388 11.6641 55.5117 11.1953H56.2656ZM61.1055 7.92969H59.2773V13H58.5312V7.92969H56.707V7.3125H61.1055V7.92969ZM63.9023 10.6133L65.2109 7.3125H66.082L64.0703 12.0508C63.9349 12.3529 63.8086 12.5677 63.6914 12.6953C63.5742 12.8203 63.4362 12.9167 63.2773 12.9844C63.1211 13.0495 62.9245 13.082 62.6875 13.082C62.4818 13.082 62.3503 13.0703 62.293 13.0469L62.3164 12.4531L62.6719 12.4688C62.9453 12.4688 63.1484 12.3372 63.2812 12.0742L63.3789 11.8711L63.5273 11.5234L61.5898 7.3125H62.4297L63.9023 10.6133ZM71.3242 13H70.5703V7.92969H67.7656V13H67.0156V7.3125H71.3242V13ZM77.0625 13H76.3086V10.3711H73.4414V13H72.6914V7.3125H73.4414V9.75781H76.3086V7.3125H77.0625V13ZM82.7695 10.3398C82.7695 10.8971 82.6758 11.3841 82.4883 11.8008C82.3008 12.2148 82.0352 12.5312 81.6914 12.75C81.3477 12.9688 80.9466 13.0781 80.4883 13.0781C80.0404 13.0781 79.6432 12.9688 79.2969 12.75C78.9505 12.5286 78.681 12.2148 78.4883 11.8086C78.2982 11.3997 78.2005 10.9271 78.1953 10.3906V9.98047C78.1953 9.43359 78.2904 8.95052 78.4805 8.53125C78.6706 8.11198 78.9388 7.79167 79.2852 7.57031C79.6341 7.34635 80.0326 7.23438 80.4805 7.23438C80.9362 7.23438 81.3372 7.34505 81.6836 7.56641C82.0326 7.78516 82.3008 8.10417 82.4883 8.52344C82.6758 8.9401 82.7695 9.42578 82.7695 9.98047V10.3398ZM82.0234 9.97266C82.0234 9.29818 81.888 8.78125 81.6172 8.42188C81.3464 8.0599 80.9674 7.87891 80.4805 7.87891C80.0065 7.87891 79.6328 8.0599 79.3594 8.42188C79.0885 8.78125 78.9492 9.28125 78.9414 9.92188V10.3398C78.9414 10.9935 79.0781 11.5078 79.3516 11.8828C79.6276 12.2552 80.0065 12.4414 80.4883 12.4414C80.9727 12.4414 81.3477 12.2656 81.6133 11.9141C81.8789 11.5599 82.0156 11.0534 82.0234 10.3945V9.97266ZM85.8789 13V7.3125H87.7383C88.3555 7.3125 88.819 7.4401 89.1289 7.69531C89.4414 7.95052 89.5977 8.32812 89.5977 8.82812C89.5977 9.09375 89.5221 9.32943 89.3711 9.53516C89.2201 9.73828 89.0143 9.89583 88.7539 10.0078C89.0612 10.0938 89.3034 10.2578 89.4805 10.5C89.6602 10.7396 89.75 11.026 89.75 11.3594C89.75 11.8698 89.5846 12.2708 89.2539 12.5625C88.9232 12.8542 88.4557 13 87.8516 13H85.8789ZM86.6289 10.3398V12.3867H87.8672C88.2161 12.3867 88.4909 12.2969 88.6914 12.1172C88.8945 11.9349 88.9961 11.6849 88.9961 11.3672C88.9961 10.6823 88.6237 10.3398 87.8789 10.3398H86.6289ZM86.6289 9.73828H87.7617C88.0898 9.73828 88.3516 9.65625 88.5469 9.49219C88.7448 9.32812 88.8438 9.10547 88.8438 8.82422C88.8438 8.51172 88.7526 8.28516 88.5703 8.14453C88.388 8.0013 88.1107 7.92969 87.7383 7.92969H86.6289V9.73828Z" fill="#0051BA"/>
<path d="M63.635 21.2319C61.5941 21.2319 59.9785 22.7499 59.9785 24.8581C59.9785 26.8821 61.5941 28.4844 63.635 28.4844C65.6758 28.4844 67.2914 26.9664 67.2914 24.8581C67.2914 22.6655 65.6758 21.2319 63.635 21.2319ZM63.635 26.9664C62.5295 26.9664 61.5941 26.0388 61.5941 24.7738C61.5941 23.5088 62.5295 22.5812 63.635 22.5812C64.7404 22.5812 65.6758 23.4245 65.6758 24.7738C65.6758 26.0388 64.7404 26.9664 63.635 26.9664ZM55.7268 21.2319C53.686 21.2319 52.0703 22.7499 52.0703 24.8581C52.0703 26.8821 53.686 28.4844 55.7268 28.4844C57.7676 28.4844 59.3833 26.9664 59.3833 24.8581C59.3833 22.6655 57.7676 21.2319 55.7268 21.2319ZM55.7268 26.9664C54.6214 26.9664 53.686 26.0388 53.686 24.7738C53.686 23.5088 54.6214 22.5812 55.7268 22.5812C56.8322 22.5812 57.7676 23.4245 57.7676 24.7738C57.7676 26.0388 56.8322 26.9664 55.7268 26.9664ZM46.288 22.3282V23.8462H49.9445C49.8595 24.6895 49.5193 25.3641 49.0941 25.7858C48.5839 26.2918 47.7336 26.8821 46.288 26.8821C43.9921 26.8821 42.2914 25.1111 42.2914 22.8342C42.2914 20.5572 44.0771 18.7863 46.288 18.7863C47.4785 18.7863 48.4139 19.2923 49.0941 19.8826L50.1996 18.7863C49.2642 17.943 48.0737 17.2683 46.3731 17.2683C43.3118 17.2683 40.6758 19.7983 40.6758 22.8342C40.6758 25.8701 43.3118 28.4001 46.3731 28.4001C48.0737 28.4001 49.2642 27.8941 50.2846 26.7978C51.305 25.7858 51.6452 24.3522 51.6452 23.2558C51.6452 22.9185 51.6452 22.5812 51.5601 22.3282H46.288ZM84.8935 23.5088C84.5533 22.6655 83.703 21.2319 81.8322 21.2319C79.9615 21.2319 78.4309 22.6655 78.4309 24.8581C78.4309 26.8821 79.9615 28.4844 82.0023 28.4844C83.6179 28.4844 84.6384 27.4724 84.9785 26.8821L83.788 26.0388C83.3628 26.6291 82.8526 27.0508 82.0023 27.0508C81.152 27.0508 80.6418 26.7134 80.2166 25.9545L85.0635 23.9305L84.8935 23.5088ZM79.9615 24.6895C79.9615 23.3402 81.0669 22.5812 81.8322 22.5812C82.4275 22.5812 83.0227 22.9185 83.1928 23.3402L79.9615 24.6895ZM75.9649 28.1471H77.5805V17.6056H75.9649V28.1471ZM73.4139 21.9909C72.9887 21.5692 72.3084 21.1476 71.4581 21.1476C69.6724 21.1476 67.9717 22.7499 67.9717 24.7738C67.9717 26.7978 69.5873 28.3157 71.4581 28.3157C72.3084 28.3157 72.9887 27.8941 73.3288 27.4724H73.4139V27.9784C73.4139 29.3277 72.6486 30.0867 71.4581 30.0867C70.5227 30.0867 69.8424 29.412 69.6724 28.8217L68.3118 29.412C68.737 30.3397 69.7574 31.5203 71.5431 31.5203C73.4139 31.5203 74.9445 30.424 74.9445 27.8097V21.4006H73.4139V21.9909ZM71.5431 26.9664C70.4377 26.9664 69.5023 26.0388 69.5023 24.7738C69.5023 23.5088 70.4377 22.5812 71.5431 22.5812C72.6486 22.5812 73.4989 23.5088 73.4989 24.7738C73.4989 26.0388 72.6486 26.9664 71.5431 26.9664ZM92.2914 17.6056H88.4649V28.1471H90.0805V24.1835H92.2914C94.0771 24.1835 95.7778 22.9185 95.7778 20.8946C95.7778 18.8706 94.0771 17.6056 92.2914 17.6056ZM92.3764 22.6655H90.0805V19.0393H92.3764C93.5669 19.0393 94.2472 20.0512 94.2472 20.8102C94.1622 21.7379 93.4819 22.6655 92.3764 22.6655ZM102.155 21.1476C100.965 21.1476 99.7744 21.6535 99.3492 22.7499L100.795 23.3402C101.135 22.7499 101.645 22.5812 102.24 22.5812C103.091 22.5812 103.856 23.0872 103.941 23.9305V24.0148C103.686 23.8462 103.006 23.5932 102.325 23.5932C100.795 23.5932 99.2642 24.4365 99.2642 25.9545C99.2642 27.3881 100.54 28.3157 101.9 28.3157C103.006 28.3157 103.516 27.8097 103.941 27.3038H104.026V28.1471H105.557V24.0992C105.387 22.2439 103.941 21.1476 102.155 21.1476ZM101.985 26.9664C101.475 26.9664 100.71 26.7134 100.71 26.0388C100.71 25.1955 101.645 24.9425 102.41 24.9425C103.091 24.9425 103.431 25.1111 103.856 25.2798C103.686 26.2918 102.836 26.9664 101.985 26.9664ZM110.914 21.4006L109.128 25.9545H109.043L107.172 21.4006H105.472L108.278 27.8097L106.662 31.3517H108.278L112.615 21.4006H110.914ZM96.6281 28.1471H98.2438V17.6056H96.6281V28.1471Z" fill="#0051BA"/>
<g clip-path="url(#clip0_534_395)">
<path d="M32.2506 19.0594L27.5144 16.3264L23.6191 20.0918L27.1792 23.5331L32.2505 20.606C32.5299 20.4448 32.6969 20.1556 32.6969 19.8329C32.6969 19.5102 32.53 19.2209 32.2506 19.0594Z" fill="#0051BA"/>
<path d="M26.7105 15.8622L21.4986 12.8534L10.0762 7L22.9773 19.4713L26.7105 15.8622Z" fill="#0051BA"/>
<path d="M10.2676 33L21.5199 26.8016L26.3771 23.9977L22.9791 20.7126L10.2676 33Z" fill="#0051BA"/>
<path d="M9.31482 7.50488L9.30273 32.6908L22.336 20.0918L9.31482 7.50488Z" fill="#0051BA"/>
</g>
<defs>
<clipPath id="clip0_534_395">
<rect width="26" height="26" fill="white" transform="translate(8 7)"/>
</clipPath>
</defs>
</svg>
