<svg width="100" height="26" viewBox="0 0 100 26" fill="none" xmlns="http://www.w3.org/2000/svg">
<path d="M34.0014 7.60544L25.4229 2.0941C21.2556 -0.583092 16.0256 -0.583092 11.8583 2.0941L3.27986 7.60544C1.24363 8.91396 0 11.2508 0 13.771V22.1576C0 24.2803 1.62752 25.9996 3.63456 25.9996H33.6481C35.6552 25.9996 37.2827 24.2788 37.2827 22.1576V13.771C37.2812 11.2508 36.0376 8.91396 34.0014 7.60544Z" fill="#BE922D"/>
<path d="M34.0014 7.14736L25.4229 1.90887C21.2556 -0.636291 16.0256 -0.636291 11.8583 1.90887L3.27986 7.14736C1.24363 8.39134 0 10.6123 0 13.0078V20.9793C0 22.9963 1.62752 24.632 3.63456 24.632H33.6481C35.6552 24.632 37.2827 22.9963 37.2827 20.9793V13.0078C37.2812 10.6123 36.0376 8.39134 34.0014 7.14736Z" fill="#FFCB05"/>
<path d="M25.8554 8.08619C25.4102 9.78785 24.4629 11.3208 23.19 12.4005C21.8734 13.5168 20.2999 14.1066 18.6417 14.1066C16.9836 14.1066 15.41 13.5168 14.0934 12.4005C12.8191 11.3208 11.8733 9.78932 11.4281 8.08619C11.3215 7.67691 11.5317 7.25003 11.8996 7.1312C12.2674 7.01238 12.6513 7.24709 12.7578 7.65637C13.5139 10.5463 15.9341 12.5663 18.6417 12.5663C21.3494 12.5663 23.7695 10.5477 24.5256 7.65637C24.6322 7.24709 25.0175 7.01238 25.3839 7.1312C25.7517 7.24856 25.9634 7.67691 25.8554 8.08619Z" fill="#BE922D"/>
<path d="M12.0025 8.7244C12.7546 8.7244 13.3644 8.11162 13.3644 7.35573C13.3644 6.59983 12.7546 5.98706 12.0025 5.98706C11.2504 5.98706 10.6406 6.59983 10.6406 7.35573C10.6406 8.11162 11.2504 8.7244 12.0025 8.7244Z" fill="#BE922D"/>
<path d="M25.1938 8.72442C25.9459 8.72442 26.5557 8.11164 26.5557 7.35575C26.5557 6.59985 25.9459 5.98708 25.1938 5.98708C24.4417 5.98708 23.8319 6.59985 23.8319 7.35575C23.8319 8.11164 24.4417 8.72442 25.1938 8.72442Z" fill="#BE922D"/>
<path d="M25.8554 7.72683C25.4102 9.26419 24.4629 10.6475 23.19 11.6231C21.8734 12.6309 20.2999 13.1634 18.6417 13.1634C16.9836 13.1634 15.41 12.6309 14.0934 11.6231C12.8191 10.6475 11.8733 9.26419 11.4281 7.72683C11.3215 7.35715 11.5317 6.97135 11.8996 6.86426C12.2674 6.75717 12.6513 6.96841 12.7578 7.33808C13.5139 9.94926 15.9341 11.7727 18.6417 11.7727C21.3494 11.7727 23.7695 9.94926 24.5256 7.33808C24.6322 6.96841 25.0175 6.75717 25.3839 6.86426C25.7517 6.97135 25.9634 7.35862 25.8554 7.72683Z" fill="white"/>
<path d="M48.0713 10.5403V19.521H45.5081V10.5403H43.1113V8.36629H50.5001V10.5403H48.0713Z" fill="#0051BA"/>
<path d="M58.1213 10.5403H54.4108V12.6982H57.9388V14.8722H54.4108V17.347H58.1213V19.521H51.8477V8.36627H58.1213V10.5403Z" fill="#0051BA"/>
<path d="M63.3791 17.3455H68.1376V19.5195H59.168L64.4928 10.5388H60.0335V8.36627H68.6864L63.3791 17.3455Z" fill="#0051BA"/>
<path d="M79.867 11.092C79.035 10.3394 78.3198 10.2896 78.003 10.2896C77.6542 10.2896 77.2207 10.3394 76.9214 10.6739C76.755 10.8411 76.6382 11.092 76.6382 11.3766C76.6382 11.6436 76.7215 11.8445 76.8879 11.9956C77.1535 12.2465 77.5374 12.3462 78.2862 12.6308L79.1182 12.9491C79.6014 13.1325 80.1998 13.3834 80.6319 13.8014C81.2814 14.4205 81.4478 15.2229 81.4478 15.8757C81.4478 17.0302 81.0479 18.0336 80.4655 18.6351C79.4831 19.6722 78.0527 19.7719 77.3214 19.7719C76.5229 19.7719 75.8238 19.6546 75.1246 19.304C74.5582 19.0194 73.9101 18.5016 73.4941 18.0835L74.8254 16.2439C75.1085 16.5285 75.5581 16.9129 75.8573 17.0962C76.2894 17.3632 76.739 17.4982 77.2557 17.4982C77.5885 17.4982 78.0541 17.4307 78.4205 17.1138C78.6365 16.9305 78.8204 16.6283 78.8204 16.2102C78.8204 15.842 78.6701 15.6087 78.438 15.4078C78.1388 15.1569 77.4557 14.9061 77.1404 14.7887L76.2252 14.4704C75.7099 14.287 75.11 14.0523 74.6779 13.5843C74.0955 12.9653 74.0123 12.179 74.0123 11.645C74.0123 10.6578 74.3115 9.8216 74.9772 9.13654C75.7595 8.33411 76.6908 8.117 77.7228 8.117C78.4876 8.117 79.7196 8.2505 81.0172 9.22015L79.867 11.092Z" fill="#0051BA"/>
<path d="M89.4678 17.4132H85.2742L84.4261 19.5197H81.7637L86.2405 8.36499H88.5861L92.9622 19.5197H90.2998L89.4678 17.4132ZM88.7686 15.4401L87.4038 11.6935L86.023 15.4401H88.7686Z" fill="#0051BA"/>
<path d="M97.5713 10.5403V19.521H95.0081V10.5403H92.6113V8.36629H100V10.5403H97.5713Z" fill="#0051BA"/>
<path d="M46.6385 23.5247C46.51 23.535 46.31 23.5467 46.1977 23.5467C45.932 23.5467 45.7729 23.5115 45.6707 23.4308C45.4926 23.2929 45.4766 23.0773 45.4766 22.9335V22.3012H45.713V22.9012C45.713 22.9848 45.713 23.1609 45.8415 23.2548C45.9174 23.312 46.0458 23.3222 46.2122 23.3222C46.3947 23.3222 46.5378 23.309 46.6399 23.3002V22.3027H46.8764V24.4415H46.6399V23.5247H46.6385Z" fill="#0051BA"/>
<path d="M48.3613 23.3729C48.3613 22.7347 48.8562 22.2668 49.4692 22.2668C50.0823 22.2668 50.5771 22.7347 50.5771 23.3729C50.5771 24.0081 50.0852 24.479 49.4692 24.479C48.8518 24.479 48.3613 24.0081 48.3613 23.3729ZM48.6036 23.3729C48.6036 23.8643 48.9904 24.2545 49.4692 24.2545C49.948 24.2545 50.3348 23.8628 50.3348 23.3729C50.3348 22.8814 49.948 22.4912 49.4692 22.4912C48.989 22.4898 48.6036 22.8814 48.6036 23.3729Z" fill="#0051BA"/>
<path d="M52.0645 22.3003H52.3009V23.1702H53.3927V22.3003H53.6292V24.2147H53.8715V24.888H53.6482V24.4391H53.3927V23.3932H52.3009V24.4391H52.0645V22.3003Z" fill="#0051BA"/>
<path d="M57.0391 22.3003H58.0959V22.5247H57.2755V23.1893H57.5631C57.8244 23.1893 58.2973 23.2435 58.2973 23.7922C58.2973 24.2 58.0258 24.4406 57.6083 24.4406H57.0405V22.3003H57.0391ZM57.2755 24.2161H57.5499C57.6463 24.2161 57.8214 24.2161 57.9426 24.0973C57.9995 24.043 58.055 23.9462 58.055 23.7922C58.055 23.6895 58.0287 23.5487 57.8827 23.468C57.7835 23.4137 57.6565 23.4137 57.5251 23.4137H57.2755V24.2161Z" fill="#0051BA"/>
<path d="M60.8958 23.8383H59.9894L59.7339 24.4412H59.4727L60.4521 22.1997L61.4067 24.4412H61.1454L60.8958 23.8383ZM60.8039 23.6139L60.4462 22.7571L60.0828 23.6139H60.8039Z" fill="#0051BA"/>
<path d="M62.7397 22.5763C62.9119 22.3196 63.1411 22.2653 63.3498 22.2653C63.4578 22.2653 63.6534 22.2815 63.7994 22.4164C63.8913 22.5 63.9658 22.635 63.9658 22.811C63.9658 23.0296 63.8373 23.1866 63.6724 23.2628C63.957 23.3274 64.1001 23.5548 64.1001 23.8144C64.1001 24.0799 63.9658 24.2442 63.8359 24.3367C63.7016 24.4291 63.5235 24.4775 63.3513 24.4775C62.9294 24.4775 62.69 24.2149 62.582 23.9641L62.8112 23.8614C62.8973 24.1019 63.1046 24.253 63.36 24.253C63.4753 24.253 63.5965 24.2237 63.6855 24.1636C63.8227 24.0667 63.8578 23.9362 63.8578 23.8203C63.8578 23.4286 63.4972 23.4007 63.29 23.4007H63.0988V23.1763H63.29C63.5863 23.1763 63.7235 23.0091 63.7235 22.814C63.7235 22.7215 63.6885 22.6409 63.6374 22.5895C63.5542 22.503 63.433 22.4898 63.3498 22.4898C63.1966 22.4898 63.0506 22.5352 62.9221 22.7201L62.7397 22.5763Z" fill="#0051BA"/>
<path d="M66.6947 23.8383H65.7882L65.5328 24.4412H65.2715L66.2509 22.1997L67.2055 24.4412H66.9443L66.6947 23.8383ZM66.6027 23.6139L66.2451 22.7571L65.8816 23.6139H66.6027Z" fill="#0051BA"/>
<path d="M68.9454 22.3003C69.1585 22.3003 69.3381 22.3252 69.4811 22.4514C69.6373 22.5863 69.6752 22.7756 69.6752 22.9105C69.6752 23.2127 69.4869 23.5105 69.0023 23.5105H68.7951V24.4406H68.5586V22.3018H68.9454V22.3003ZM68.7951 23.2861H68.9892C69.2694 23.2861 69.4388 23.1453 69.4388 22.8973C69.4388 22.557 69.122 22.5247 68.9702 22.5247H68.7951V23.2861Z" fill="#0051BA"/>
<path d="M70.8311 24.1273L71.0413 24.2035L70.7187 24.9282L70.5684 24.8666L70.8311 24.1273Z" fill="#0051BA"/>
<path d="M74.4922 22.3003H75.549V22.5247H74.7287V23.1893H75.0162C75.2775 23.1893 75.7504 23.2435 75.7504 23.7922C75.7504 24.2 75.4789 24.4406 75.0615 24.4406H74.4936V22.3003H74.4922ZM74.7287 24.2161H75.0031C75.0994 24.2161 75.2746 24.2161 75.3957 24.0973C75.4526 24.043 75.5081 23.9462 75.5081 23.7922C75.5081 23.6895 75.4818 23.5487 75.3359 23.468C75.2366 23.4137 75.1096 23.4137 74.9783 23.4137H74.7287V24.2161Z" fill="#0051BA"/>
<path d="M78.3485 23.8383H77.442L77.1866 24.4412H76.9238L77.9033 22.1997L78.8579 24.4412H78.5966L78.3485 23.8383ZM78.255 23.6139L77.8974 22.7571L77.534 23.6139H78.255Z" fill="#0051BA"/>
<path d="M81.3861 23.8383H80.4796L80.2242 24.4412H79.9629L80.9423 22.1997L81.8969 24.4412H81.6357L81.3861 23.8383ZM81.2941 23.6139L80.9365 22.7571L80.573 23.6139H81.2941Z" fill="#0051BA"/>
<path d="M83.6368 22.3003C83.8499 22.3003 84.0295 22.3252 84.1725 22.4514C84.3287 22.5863 84.3666 22.7756 84.3666 22.9105C84.3666 23.2127 84.1783 23.5105 83.6937 23.5105H83.4865V24.4406H83.25V22.3018H83.6368V22.3003ZM83.4865 23.2861H83.6806C83.9608 23.2861 84.1302 23.1453 84.1302 22.8973C84.1302 22.557 83.8134 22.5247 83.6616 22.5247H83.4865V23.2861Z" fill="#0051BA"/>
<path d="M85.7598 22.3003H85.9962V23.1893H86.2838C86.5451 23.1893 87.018 23.2435 87.018 23.7922C87.018 24.2 86.7465 24.4406 86.329 24.4406H85.7612V22.3003H85.7598ZM85.9962 24.2161H86.2706C86.367 24.2161 86.5421 24.2161 86.6633 24.0973C86.7202 24.043 86.7757 23.9462 86.7757 23.7922C86.7757 23.6895 86.7509 23.5487 86.6034 23.468C86.5042 23.4137 86.3772 23.4137 86.2458 23.4137H85.9962V24.2161ZM87.4763 22.3003V24.4391H87.2399V22.3003H87.4763Z" fill="#0051BA"/>
<path d="M90.8749 22.3003H91.9317V22.5247H91.1114V23.1893H91.399C91.6602 23.1893 92.1332 23.2435 92.1332 23.7922C92.1332 24.2 91.8617 24.4406 91.4442 24.4406H90.8764V22.3003H90.8749ZM91.1114 24.2161H91.3858C91.4822 24.2161 91.6573 24.2161 91.7785 24.0973C91.8354 24.043 91.8909 23.9462 91.8909 23.7922C91.8909 23.6895 91.866 23.5487 91.7186 23.468C91.6194 23.4137 91.4924 23.4137 91.361 23.4137H91.1114V24.2161Z" fill="#0051BA"/>
<path d="M94.7299 23.8383H93.8234L93.568 24.4412H93.3067L94.2861 22.1997L95.2408 24.4412H94.9795L94.7299 23.8383ZM94.6379 23.6139L94.2803 22.7571L93.9168 23.6139H94.6379Z" fill="#0051BA"/>
<path d="M96.9806 22.3003C97.1937 22.3003 97.3732 22.3252 97.5163 22.4514C97.6724 22.5863 97.7104 22.7756 97.7104 22.9105C97.7104 23.2127 97.5221 23.5105 97.0375 23.5105H96.8302V24.4406H96.5938V22.3018H96.9806V22.3003ZM96.8302 23.2861H97.0244C97.3046 23.2861 97.4739 23.1453 97.4739 22.8973C97.4739 22.557 97.1572 22.5247 97.0054 22.5247H96.8302V23.2861Z" fill="#0051BA"/>
</svg>
