<svg width="11" height="11" viewBox="0 0 11 11" fill="none" xmlns="http://www.w3.org/2000/svg">
<path d="M7.5625 0H3.4375C1.53931 0 0 1.53931 0 3.4375V7.5625C0 9.46069 1.53931 11 3.4375 11H7.5625C9.46069 11 11 9.46069 11 7.5625V3.4375C11 1.53931 9.46069 0 7.5625 0ZM9.96875 7.5625C9.96875 8.88937 8.88937 9.96875 7.5625 9.96875H3.4375C2.11063 9.96875 1.03125 8.88937 1.03125 7.5625V3.4375C1.03125 2.11063 2.11063 1.03125 3.4375 1.03125H7.5625C8.88937 1.03125 9.96875 2.11063 9.96875 3.4375V7.5625Z" fill="#0051BA"/>
<path d="M5.5 2.75C3.98131 2.75 2.75 3.98131 2.75 5.5C2.75 7.01869 3.98131 8.25 5.5 8.25C7.01869 8.25 8.25 7.01869 8.25 5.5C8.25 3.98131 7.01869 2.75 5.5 2.75ZM5.5 7.21875C4.55262 7.21875 3.78125 6.44738 3.78125 5.5C3.78125 4.55194 4.55262 3.78125 5.5 3.78125C6.44738 3.78125 7.21875 4.55194 7.21875 5.5C7.21875 6.44738 6.44738 7.21875 5.5 7.21875Z" fill="#0051BA"/>
<path d="M8.45628 2.91012C8.65866 2.91012 8.82272 2.74606 8.82272 2.54368C8.82272 2.3413 8.65866 2.17725 8.45628 2.17725C8.2539 2.17725 8.08984 2.3413 8.08984 2.54368C8.08984 2.74606 8.2539 2.91012 8.45628 2.91012Z" fill="#0051BA"/>
</svg>
