<svg width="11" height="11" viewBox="0 0 11 11" fill="none" xmlns="http://www.w3.org/2000/svg">
<g clip-path="url(#clip0_534_357)">
<path d="M4.95842 7.74812C4.10566 7.65918 3.33677 7.44916 2.67849 6.9343C2.5968 6.87025 2.51247 6.8085 2.43794 6.73696C2.1498 6.46023 2.12077 6.1433 2.34877 5.81669C2.54381 5.5372 2.87123 5.46243 3.21154 5.62291C3.27744 5.65402 3.34023 5.69284 3.40037 5.73455C4.6272 6.57751 6.31255 6.60078 7.54399 5.77245C7.66599 5.6789 7.79641 5.60264 7.94756 5.5637C8.24145 5.48824 8.51552 5.59618 8.67324 5.85332C8.85342 6.14698 8.85112 6.43362 8.62912 6.66161C8.28857 7.01115 7.87901 7.26402 7.42394 7.44052C6.99365 7.60734 6.52234 7.69132 6.05587 7.74708C6.12626 7.8237 6.15944 7.86137 6.20345 7.90561C6.83685 8.54201 7.47302 9.17575 8.10435 9.81411C8.31944 10.0316 8.36437 10.3013 8.24594 10.5543C8.11645 10.8308 7.82659 11.0127 7.54238 10.9932C7.36231 10.9808 7.22187 10.8912 7.0971 10.7655C6.61911 10.2845 6.13214 9.81238 5.66382 9.3223C5.52753 9.17979 5.46198 9.20674 5.34171 9.33048C4.86084 9.82552 4.37213 10.313 3.88055 10.7976C3.65981 11.0153 3.39714 11.0544 3.14115 10.9301C2.86904 10.7982 2.69588 10.5204 2.70925 10.2413C2.71846 10.0525 2.81132 9.90823 2.94093 9.77886C3.56776 9.15294 4.19287 8.52542 4.81821 7.89846C4.85957 7.85676 4.89816 7.81252 4.95842 7.74812Z" fill="#0051BA"/>
<path d="M5.47867 5.56781C3.95738 5.56262 2.70993 4.30146 2.7188 2.77775C2.72755 1.23721 3.97581 -0.00425168 5.51208 1.09442e-05C7.05147 0.00415837 8.28705 1.26348 8.27934 2.82003C8.2715 4.34063 7.01541 5.57311 5.47867 5.56781ZM6.86126 2.78143C6.85861 2.02487 6.25609 1.42258 5.50102 1.42189C4.73963 1.42108 4.13168 2.03432 4.13756 2.79779C4.14321 3.55147 4.75092 4.14951 5.50805 4.14674C6.26288 4.14409 6.8638 3.53788 6.86126 2.78143Z" fill="#0051BA"/>
</g>
<defs>
<clipPath id="clip0_534_357">
<rect width="11" height="11" fill="white"/>
</clipPath>
</defs>
</svg>
