<svg width="25" height="25" viewBox="0 0 25 25" fill="none" xmlns="http://www.w3.org/2000/svg">
<rect opacity="0.25" x="0.5" y="0.5" width="24" height="24" rx="12" stroke="#0051BA"/>
<path fill-rule="evenodd" clip-rule="evenodd" d="M12.0695 10.3617L12.0966 10.8192L11.645 10.7632C10.0011 10.5484 8.56507 9.82019 7.34576 8.59713L6.74965 7.99027L6.59611 8.43841C6.27096 9.4374 6.47869 10.4924 7.15609 11.202C7.51737 11.5941 7.43608 11.6501 6.81287 11.4167C6.59611 11.342 6.40644 11.286 6.38837 11.314C6.32515 11.3794 6.54192 12.229 6.71352 12.5651C6.94835 13.0319 7.42705 13.4894 7.9509 13.7601L8.39346 13.9749L7.86961 13.9842C7.36382 13.9842 7.34576 13.9935 7.39995 14.1896C7.58059 14.7965 8.29411 15.4407 9.08892 15.7208L9.6489 15.9168L9.16118 16.2156C8.43862 16.6451 7.58962 16.8878 6.74062 16.9065C6.33418 16.9158 6 16.9532 6 16.9812C6 17.0745 7.1019 17.5974 7.74316 17.8028C9.66697 18.4096 11.952 18.1482 13.6681 17.1119C14.8874 16.3743 16.1067 14.9085 16.6758 13.4894C16.9828 12.7331 17.2899 11.3514 17.2899 10.6885C17.2899 10.259 17.317 10.203 17.8228 9.68949C18.1209 9.39072 18.4009 9.06395 18.455 8.97059C18.5454 8.79319 18.5363 8.79319 18.0757 8.95191C17.308 9.232 17.1996 9.19466 17.5789 8.77452C17.8589 8.47576 18.1931 7.93425 18.1931 7.77553C18.1931 7.74752 18.0576 7.7942 17.9041 7.87823C17.7415 7.97159 17.3802 8.11164 17.1093 8.19567L16.6216 8.35439L16.179 8.04629C15.9351 7.87823 15.5919 7.6915 15.4113 7.63549C14.9507 7.50478 14.2462 7.52345 13.8307 7.67283C12.7017 8.09297 11.9882 9.17599 12.0695 10.3617Z" fill="#0051BA"/>
</svg>
