<svg width="11" height="11" viewBox="0 0 11 11" fill="none" xmlns="http://www.w3.org/2000/svg">
<g clip-path="url(#clip0_534_361)">
<path d="M10.902 7.95992C10.8724 7.91041 10.6895 7.51301 9.80944 6.6962C8.88812 5.84088 9.01188 5.97977 10.1216 4.50085C10.7975 3.60015 11.0677 3.05011 10.9831 2.81497C10.9026 2.59083 10.4056 2.64996 10.4056 2.64996L8.75268 2.65958C8.75268 2.65958 8.63029 2.64308 8.53885 2.6974C8.45016 2.75103 8.39309 2.87479 8.39309 2.87479C8.39309 2.87479 8.13113 3.57196 7.78186 4.16463C7.04549 5.41529 6.75053 5.48129 6.63021 5.4036C6.35037 5.22277 6.4205 4.67617 6.4205 4.28839C6.4205 3.07624 6.60408 2.57089 6.06229 2.44026C5.88215 2.39694 5.75014 2.36806 5.29017 2.36325C4.70025 2.35706 4.2004 2.36531 3.91782 2.50351C3.72943 2.59564 3.58436 2.80122 3.67305 2.81291C3.78237 2.82735 4.02989 2.8796 4.16121 3.05836C4.33104 3.28869 4.32485 3.80711 4.32485 3.80711C4.32485 3.80711 4.42248 5.23378 4.09727 5.41116C3.87382 5.53286 3.56786 5.28465 2.91124 4.14951C2.57503 3.56853 2.32064 2.92567 2.32064 2.92567C2.32064 2.92567 2.27182 2.80603 2.1845 2.74209C2.07862 2.6644 1.93011 2.63965 1.93011 2.63965L0.358368 2.64927C0.358368 2.64927 0.122538 2.65615 0.0359061 2.75859C-0.0410996 2.85004 0.0297182 3.03842 0.0297182 3.03842C0.0297182 3.03842 1.26043 5.9172 2.65341 7.36862C3.93157 8.69903 5.3823 8.61171 5.3823 8.61171H6.0396C6.0396 8.61171 6.2383 8.58971 6.33937 8.48039C6.43288 8.38001 6.42944 8.19162 6.42944 8.19162C6.42944 8.19162 6.41638 7.30949 6.82616 7.17954C7.22975 7.05166 7.74817 8.03211 8.29752 8.40957C8.7128 8.69491 9.02839 8.63234 9.02839 8.63234L10.4977 8.61171C10.4977 8.61171 11.2664 8.56427 10.902 7.95992Z" fill="#0051BA"/>
</g>
<defs>
<clipPath id="clip0_534_361">
<rect width="11" height="11" fill="white"/>
</clipPath>
</defs>
</svg>
