<svg width="11" height="11" viewBox="0 0 11 11" fill="none" xmlns="http://www.w3.org/2000/svg">
<path d="M5.50137 0H5.49863C2.46606 0 0 2.46675 0 5.5C0 6.70312 0.38775 7.81825 1.04706 8.72369L0.361625 10.7669L2.47569 10.0911C3.34538 10.6673 4.38281 11 5.50137 11C8.53394 11 11 8.53256 11 5.5C11 2.46744 8.53394 0 5.50137 0ZM8.70169 7.76669C8.569 8.14137 8.04237 8.45212 7.62231 8.54287C7.33494 8.60406 6.95956 8.65287 5.69594 8.129C4.07962 7.45938 3.03875 5.81694 2.95762 5.71037C2.87994 5.60381 2.3045 4.84069 2.3045 4.05144C2.3045 3.26219 2.70531 2.87788 2.86688 2.71288C2.99956 2.57744 3.21887 2.51556 3.42925 2.51556C3.49731 2.51556 3.5585 2.519 3.6135 2.52175C3.77506 2.52863 3.85619 2.53825 3.96275 2.79331C4.09544 3.113 4.41856 3.90225 4.45706 3.98338C4.49625 4.0645 4.53544 4.1745 4.48044 4.28106C4.42887 4.39106 4.3835 4.43988 4.30237 4.53337C4.22125 4.62687 4.14425 4.69838 4.06312 4.79875C3.98887 4.88606 3.905 4.97956 3.9985 5.14113C4.092 5.29925 4.41512 5.82656 4.89087 6.25006C5.50481 6.79662 6.00256 6.97125 6.18062 7.0455C6.31331 7.1005 6.47144 7.08744 6.56838 6.98431C6.69144 6.85163 6.84337 6.63163 6.99806 6.41506C7.10806 6.25969 7.24694 6.24044 7.39269 6.29544C7.54119 6.347 8.327 6.73544 8.48856 6.81587C8.65013 6.897 8.75669 6.9355 8.79587 7.00356C8.83437 7.07163 8.83437 7.39131 8.70169 7.76669Z" fill="#0051BA"/>
</svg>
