<svg width="11" height="11" viewBox="0 0 11 11" fill="none" xmlns="http://www.w3.org/2000/svg">
<path d="M10.5325 2.4475C10.2341 1.91675 9.91031 1.81913 9.251 1.782C8.59237 1.73731 6.93619 1.71875 5.50137 1.71875C4.06381 1.71875 2.40694 1.73731 1.749 1.78131C1.09106 1.81913 0.766562 1.91606 0.465438 2.4475C0.158125 2.97756 0 3.89056 0 5.49794C0 5.49931 0 5.5 0 5.5C0 5.50137 0 5.50206 0 5.50206V5.50344C0 7.10394 0.158125 8.02381 0.465438 8.54838C0.766562 9.07912 1.09037 9.17537 1.74831 9.22006C2.40694 9.25856 4.06381 9.28125 5.50137 9.28125C6.93619 9.28125 8.59237 9.25856 9.25169 9.22075C9.911 9.17606 10.2348 9.07981 10.5332 8.54906C10.8433 8.0245 11 7.10462 11 5.50412C11 5.50412 11 5.50206 11 5.50069C11 5.50069 11 5.49931 11 5.49863C11 3.89056 10.8432 2.97756 10.5325 2.4475ZM4.125 7.5625V3.4375L7.5625 5.5L4.125 7.5625Z" fill="#0051BA"/>
</svg>
